<mxfile host="Electron" agent="Mozilla/5.0 (Windows NT 10.0; Win64; x64) AppleWebKit/537.36 (KHTML, like Gecko) draw.io/25.0.2 Chrome/128.0.6613.186 Electron/32.2.5 Safari/537.36" version="25.0.2">
  <diagram id="C5RBs43oDa-KdzZeNtuy" name="Page-1">
    <mxGraphModel dx="1909" dy="1129" grid="1" gridSize="10" guides="1" tooltips="1" connect="1" arrows="1" fold="1" page="1" pageScale="1" pageWidth="827" pageHeight="1169" math="0" shadow="0">
      <root>
        <mxCell id="WIyWlLk6GJQsqaUBKTNV-0" />
        <mxCell id="WIyWlLk6GJQsqaUBKTNV-1" parent="WIyWlLk6GJQsqaUBKTNV-0" />
        <mxCell id="_gTvMmu1mN6YXcPTjAMC-47" value="User" style="swimlane;fontStyle=1;align=center;verticalAlign=top;childLayout=stackLayout;horizontal=1;startSize=27.8;horizontalStack=0;resizeParent=1;resizeParentMax=0;resizeLast=0;collapsible=0;marginBottom=0;" vertex="1" parent="WIyWlLk6GJQsqaUBKTNV-1">
          <mxGeometry x="700" y="823" width="167" height="147.8" as="geometry" />
        </mxCell>
        <mxCell id="_gTvMmu1mN6YXcPTjAMC-48" value="+id: String" style="text;strokeColor=none;fillColor=none;align=left;verticalAlign=top;spacingLeft=4;spacingRight=4;overflow=hidden;rotatable=0;points=[[0,0.5],[1,0.5]];portConstraint=eastwest;" vertex="1" parent="_gTvMmu1mN6YXcPTjAMC-47">
          <mxGeometry y="27.8" width="167" height="28" as="geometry" />
        </mxCell>
        <mxCell id="_gTvMmu1mN6YXcPTjAMC-49" value="+name: String" style="text;strokeColor=none;fillColor=none;align=left;verticalAlign=top;spacingLeft=4;spacingRight=4;overflow=hidden;rotatable=0;points=[[0,0.5],[1,0.5]];portConstraint=eastwest;" vertex="1" parent="_gTvMmu1mN6YXcPTjAMC-47">
          <mxGeometry y="55.8" width="167" height="28" as="geometry" />
        </mxCell>
        <mxCell id="_gTvMmu1mN6YXcPTjAMC-50" style="line;strokeWidth=1;fillColor=none;align=left;verticalAlign=middle;spacingTop=-1;spacingLeft=3;spacingRight=3;rotatable=0;labelPosition=right;points=[];portConstraint=eastwest;strokeColor=inherit;" vertex="1" parent="_gTvMmu1mN6YXcPTjAMC-47">
          <mxGeometry y="83.8" width="167" height="8" as="geometry" />
        </mxCell>
        <mxCell id="_gTvMmu1mN6YXcPTjAMC-51" value="+getId() : : String" style="text;strokeColor=none;fillColor=none;align=left;verticalAlign=top;spacingLeft=4;spacingRight=4;overflow=hidden;rotatable=0;points=[[0,0.5],[1,0.5]];portConstraint=eastwest;" vertex="1" parent="_gTvMmu1mN6YXcPTjAMC-47">
          <mxGeometry y="91.8" width="167" height="28" as="geometry" />
        </mxCell>
        <mxCell id="_gTvMmu1mN6YXcPTjAMC-52" value="+getName() : : String" style="text;strokeColor=none;fillColor=none;align=left;verticalAlign=top;spacingLeft=4;spacingRight=4;overflow=hidden;rotatable=0;points=[[0,0.5],[1,0.5]];portConstraint=eastwest;" vertex="1" parent="_gTvMmu1mN6YXcPTjAMC-47">
          <mxGeometry y="119.8" width="167" height="28" as="geometry" />
        </mxCell>
        <mxCell id="_gTvMmu1mN6YXcPTjAMC-53" value="Admin" style="swimlane;fontStyle=1;align=center;verticalAlign=top;childLayout=stackLayout;horizontal=1;startSize=31.399998982747395;horizontalStack=0;resizeParent=1;resizeParentMax=0;resizeLast=0;collapsible=0;marginBottom=0;" vertex="1" parent="WIyWlLk6GJQsqaUBKTNV-1">
          <mxGeometry x="190" y="590" width="461" height="101.39999898274739" as="geometry" />
        </mxCell>
        <mxCell id="_gTvMmu1mN6YXcPTjAMC-54" value="+password: String" style="text;strokeColor=none;fillColor=none;align=left;verticalAlign=top;spacingLeft=4;spacingRight=4;overflow=hidden;rotatable=0;points=[[0,0.5],[1,0.5]];portConstraint=eastwest;" vertex="1" parent="_gTvMmu1mN6YXcPTjAMC-53">
          <mxGeometry y="31.399998982747395" width="461" height="31" as="geometry" />
        </mxCell>
        <mxCell id="_gTvMmu1mN6YXcPTjAMC-55" style="line;strokeWidth=1;fillColor=none;align=left;verticalAlign=middle;spacingTop=-1;spacingLeft=3;spacingRight=3;rotatable=0;labelPosition=right;points=[];portConstraint=eastwest;strokeColor=inherit;" vertex="1" parent="_gTvMmu1mN6YXcPTjAMC-53">
          <mxGeometry y="62.39999898274739" width="461" height="8" as="geometry" />
        </mxCell>
        <mxCell id="_gTvMmu1mN6YXcPTjAMC-56" value="+authenticate(username: String, password: String) : : boolean" style="text;strokeColor=none;fillColor=none;align=left;verticalAlign=top;spacingLeft=4;spacingRight=4;overflow=hidden;rotatable=0;points=[[0,0.5],[1,0.5]];portConstraint=eastwest;" vertex="1" parent="_gTvMmu1mN6YXcPTjAMC-53">
          <mxGeometry y="70.39999898274739" width="461" height="31" as="geometry" />
        </mxCell>
        <mxCell id="_gTvMmu1mN6YXcPTjAMC-57" value="Student" style="swimlane;fontStyle=1;align=center;verticalAlign=top;childLayout=stackLayout;horizontal=1;startSize=29.149999618530273;horizontalStack=0;resizeParent=1;resizeParentMax=0;resizeLast=0;collapsible=0;marginBottom=0;" vertex="1" parent="WIyWlLk6GJQsqaUBKTNV-1">
          <mxGeometry x="701" y="579" width="205" height="124.14999961853027" as="geometry" />
        </mxCell>
        <mxCell id="_gTvMmu1mN6YXcPTjAMC-58" value="+voted: boolean" style="text;strokeColor=none;fillColor=none;align=left;verticalAlign=top;spacingLeft=4;spacingRight=4;overflow=hidden;rotatable=0;points=[[0,0.5],[1,0.5]];portConstraint=eastwest;" vertex="1" parent="_gTvMmu1mN6YXcPTjAMC-57">
          <mxGeometry y="29.149999618530273" width="205" height="29" as="geometry" />
        </mxCell>
        <mxCell id="_gTvMmu1mN6YXcPTjAMC-59" style="line;strokeWidth=1;fillColor=none;align=left;verticalAlign=middle;spacingTop=-1;spacingLeft=3;spacingRight=3;rotatable=0;labelPosition=right;points=[];portConstraint=eastwest;strokeColor=inherit;" vertex="1" parent="_gTvMmu1mN6YXcPTjAMC-57">
          <mxGeometry y="58.14999961853027" width="205" height="8" as="geometry" />
        </mxCell>
        <mxCell id="_gTvMmu1mN6YXcPTjAMC-60" value="+hasVoted() : : boolean" style="text;strokeColor=none;fillColor=none;align=left;verticalAlign=top;spacingLeft=4;spacingRight=4;overflow=hidden;rotatable=0;points=[[0,0.5],[1,0.5]];portConstraint=eastwest;" vertex="1" parent="_gTvMmu1mN6YXcPTjAMC-57">
          <mxGeometry y="66.14999961853027" width="205" height="29" as="geometry" />
        </mxCell>
        <mxCell id="_gTvMmu1mN6YXcPTjAMC-61" value="+setVoted(voted: boolean)" style="text;strokeColor=none;fillColor=none;align=left;verticalAlign=top;spacingLeft=4;spacingRight=4;overflow=hidden;rotatable=0;points=[[0,0.5],[1,0.5]];portConstraint=eastwest;" vertex="1" parent="_gTvMmu1mN6YXcPTjAMC-57">
          <mxGeometry y="95.14999961853027" width="205" height="29" as="geometry" />
        </mxCell>
        <mxCell id="_gTvMmu1mN6YXcPTjAMC-62" value="Candidate" style="swimlane;fontStyle=1;align=center;verticalAlign=top;childLayout=stackLayout;horizontal=1;startSize=29.149999618530273;horizontalStack=0;resizeParent=1;resizeParentMax=0;resizeLast=0;collapsible=0;marginBottom=0;" vertex="1" parent="WIyWlLk6GJQsqaUBKTNV-1">
          <mxGeometry x="956" y="579" width="143" height="124.14999961853027" as="geometry" />
        </mxCell>
        <mxCell id="_gTvMmu1mN6YXcPTjAMC-63" value="+votes: int" style="text;strokeColor=none;fillColor=none;align=left;verticalAlign=top;spacingLeft=4;spacingRight=4;overflow=hidden;rotatable=0;points=[[0,0.5],[1,0.5]];portConstraint=eastwest;" vertex="1" parent="_gTvMmu1mN6YXcPTjAMC-62">
          <mxGeometry y="29.149999618530273" width="143" height="29" as="geometry" />
        </mxCell>
        <mxCell id="_gTvMmu1mN6YXcPTjAMC-64" style="line;strokeWidth=1;fillColor=none;align=left;verticalAlign=middle;spacingTop=-1;spacingLeft=3;spacingRight=3;rotatable=0;labelPosition=right;points=[];portConstraint=eastwest;strokeColor=inherit;" vertex="1" parent="_gTvMmu1mN6YXcPTjAMC-62">
          <mxGeometry y="58.14999961853027" width="143" height="8" as="geometry" />
        </mxCell>
        <mxCell id="_gTvMmu1mN6YXcPTjAMC-65" value="+getVotes() : : int" style="text;strokeColor=none;fillColor=none;align=left;verticalAlign=top;spacingLeft=4;spacingRight=4;overflow=hidden;rotatable=0;points=[[0,0.5],[1,0.5]];portConstraint=eastwest;" vertex="1" parent="_gTvMmu1mN6YXcPTjAMC-62">
          <mxGeometry y="66.14999961853027" width="143" height="29" as="geometry" />
        </mxCell>
        <mxCell id="_gTvMmu1mN6YXcPTjAMC-66" value="+addVote()" style="text;strokeColor=none;fillColor=none;align=left;verticalAlign=top;spacingLeft=4;spacingRight=4;overflow=hidden;rotatable=0;points=[[0,0.5],[1,0.5]];portConstraint=eastwest;" vertex="1" parent="_gTvMmu1mN6YXcPTjAMC-62">
          <mxGeometry y="95.14999961853027" width="143" height="29" as="geometry" />
        </mxCell>
        <mxCell id="_gTvMmu1mN6YXcPTjAMC-67" value="ElectionManager" style="swimlane;fontStyle=1;align=center;verticalAlign=top;childLayout=stackLayout;horizontal=1;startSize=24.32857186453683;horizontalStack=0;resizeParent=1;resizeParentMax=0;resizeLast=0;collapsible=0;marginBottom=0;" vertex="1" parent="WIyWlLk6GJQsqaUBKTNV-1">
          <mxGeometry x="591" y="180" width="344" height="344.3285718645368" as="geometry" />
        </mxCell>
        <mxCell id="_gTvMmu1mN6YXcPTjAMC-68" value="+admin: Admin" style="text;strokeColor=none;fillColor=none;align=left;verticalAlign=top;spacingLeft=4;spacingRight=4;overflow=hidden;rotatable=0;points=[[0,0.5],[1,0.5]];portConstraint=eastwest;" vertex="1" parent="_gTvMmu1mN6YXcPTjAMC-67">
          <mxGeometry y="24.32857186453683" width="344" height="24" as="geometry" />
        </mxCell>
        <mxCell id="_gTvMmu1mN6YXcPTjAMC-69" value="+students: Map[String, Student]" style="text;strokeColor=none;fillColor=none;align=left;verticalAlign=top;spacingLeft=4;spacingRight=4;overflow=hidden;rotatable=0;points=[[0,0.5],[1,0.5]];portConstraint=eastwest;" vertex="1" parent="_gTvMmu1mN6YXcPTjAMC-67">
          <mxGeometry y="48.328571864536826" width="344" height="24" as="geometry" />
        </mxCell>
        <mxCell id="_gTvMmu1mN6YXcPTjAMC-70" value="+candidates: List[Candidate]" style="text;strokeColor=none;fillColor=none;align=left;verticalAlign=top;spacingLeft=4;spacingRight=4;overflow=hidden;rotatable=0;points=[[0,0.5],[1,0.5]];portConstraint=eastwest;" vertex="1" parent="_gTvMmu1mN6YXcPTjAMC-67">
          <mxGeometry y="72.32857186453683" width="344" height="24" as="geometry" />
        </mxCell>
        <mxCell id="_gTvMmu1mN6YXcPTjAMC-71" value="+electionStarted: boolean" style="text;strokeColor=none;fillColor=none;align=left;verticalAlign=top;spacingLeft=4;spacingRight=4;overflow=hidden;rotatable=0;points=[[0,0.5],[1,0.5]];portConstraint=eastwest;" vertex="1" parent="_gTvMmu1mN6YXcPTjAMC-67">
          <mxGeometry y="96.32857186453683" width="344" height="24" as="geometry" />
        </mxCell>
        <mxCell id="_gTvMmu1mN6YXcPTjAMC-72" value="+DATA_FILE: String" style="text;strokeColor=none;fillColor=none;align=left;verticalAlign=top;spacingLeft=4;spacingRight=4;overflow=hidden;rotatable=0;points=[[0,0.5],[1,0.5]];portConstraint=eastwest;" vertex="1" parent="_gTvMmu1mN6YXcPTjAMC-67">
          <mxGeometry y="120.32857186453683" width="344" height="24" as="geometry" />
        </mxCell>
        <mxCell id="_gTvMmu1mN6YXcPTjAMC-73" style="line;strokeWidth=1;fillColor=none;align=left;verticalAlign=middle;spacingTop=-1;spacingLeft=3;spacingRight=3;rotatable=0;labelPosition=right;points=[];portConstraint=eastwest;strokeColor=inherit;" vertex="1" parent="_gTvMmu1mN6YXcPTjAMC-67">
          <mxGeometry y="144.32857186453683" width="344" height="8" as="geometry" />
        </mxCell>
        <mxCell id="_gTvMmu1mN6YXcPTjAMC-74" value="+studentPanel(Scanner scanner)" style="text;strokeColor=none;fillColor=none;align=left;verticalAlign=top;spacingLeft=4;spacingRight=4;overflow=hidden;rotatable=0;points=[[0,0.5],[1,0.5]];portConstraint=eastwest;" vertex="1" parent="_gTvMmu1mN6YXcPTjAMC-67">
          <mxGeometry y="152.32857186453683" width="344" height="24" as="geometry" />
        </mxCell>
        <mxCell id="_gTvMmu1mN6YXcPTjAMC-75" value="+adminPanel(Scanner scanner)" style="text;strokeColor=none;fillColor=none;align=left;verticalAlign=top;spacingLeft=4;spacingRight=4;overflow=hidden;rotatable=0;points=[[0,0.5],[1,0.5]];portConstraint=eastwest;" vertex="1" parent="_gTvMmu1mN6YXcPTjAMC-67">
          <mxGeometry y="176.32857186453683" width="344" height="24" as="geometry" />
        </mxCell>
        <mxCell id="_gTvMmu1mN6YXcPTjAMC-76" value="+startElection(Scanner scanner)" style="text;strokeColor=none;fillColor=none;align=left;verticalAlign=top;spacingLeft=4;spacingRight=4;overflow=hidden;rotatable=0;points=[[0,0.5],[1,0.5]];portConstraint=eastwest;" vertex="1" parent="_gTvMmu1mN6YXcPTjAMC-67">
          <mxGeometry y="200.32857186453683" width="344" height="24" as="geometry" />
        </mxCell>
        <mxCell id="_gTvMmu1mN6YXcPTjAMC-77" value="+addCandidate(Scanner scanner)" style="text;strokeColor=none;fillColor=none;align=left;verticalAlign=top;spacingLeft=4;spacingRight=4;overflow=hidden;rotatable=0;points=[[0,0.5],[1,0.5]];portConstraint=eastwest;" vertex="1" parent="_gTvMmu1mN6YXcPTjAMC-67">
          <mxGeometry y="224.32857186453683" width="344" height="24" as="geometry" />
        </mxCell>
        <mxCell id="_gTvMmu1mN6YXcPTjAMC-78" value="+viewResults()" style="text;strokeColor=none;fillColor=none;align=left;verticalAlign=top;spacingLeft=4;spacingRight=4;overflow=hidden;rotatable=0;points=[[0,0.5],[1,0.5]];portConstraint=eastwest;" vertex="1" parent="_gTvMmu1mN6YXcPTjAMC-67">
          <mxGeometry y="248.32857186453683" width="344" height="24" as="geometry" />
        </mxCell>
        <mxCell id="_gTvMmu1mN6YXcPTjAMC-79" value="+getValidIntegerInput(Scanner scanner) : : int" style="text;strokeColor=none;fillColor=none;align=left;verticalAlign=top;spacingLeft=4;spacingRight=4;overflow=hidden;rotatable=0;points=[[0,0.5],[1,0.5]];portConstraint=eastwest;" vertex="1" parent="_gTvMmu1mN6YXcPTjAMC-67">
          <mxGeometry y="272.3285718645368" width="344" height="24" as="geometry" />
        </mxCell>
        <mxCell id="_gTvMmu1mN6YXcPTjAMC-80" value="+saveElectionData()" style="text;strokeColor=none;fillColor=none;align=left;verticalAlign=top;spacingLeft=4;spacingRight=4;overflow=hidden;rotatable=0;points=[[0,0.5],[1,0.5]];portConstraint=eastwest;" vertex="1" parent="_gTvMmu1mN6YXcPTjAMC-67">
          <mxGeometry y="296.3285718645368" width="344" height="24" as="geometry" />
        </mxCell>
        <mxCell id="_gTvMmu1mN6YXcPTjAMC-81" value="+loadElectionData()" style="text;strokeColor=none;fillColor=none;align=left;verticalAlign=top;spacingLeft=4;spacingRight=4;overflow=hidden;rotatable=0;points=[[0,0.5],[1,0.5]];portConstraint=eastwest;" vertex="1" parent="_gTvMmu1mN6YXcPTjAMC-67">
          <mxGeometry y="320.3285718645368" width="344" height="24" as="geometry" />
        </mxCell>
        <mxCell id="_gTvMmu1mN6YXcPTjAMC-86" value="Extends" style="endArrow=block;endSize=16;endFill=0;html=1;rounded=0;entryX=0.5;entryY=0;entryDx=0;entryDy=0;exitX=0.426;exitY=1.078;exitDx=0;exitDy=0;exitPerimeter=0;" edge="1" parent="WIyWlLk6GJQsqaUBKTNV-1" source="_gTvMmu1mN6YXcPTjAMC-61" target="_gTvMmu1mN6YXcPTjAMC-47">
          <mxGeometry width="160" relative="1" as="geometry">
            <mxPoint x="640" y="703" as="sourcePoint" />
            <mxPoint x="800" y="703" as="targetPoint" />
          </mxGeometry>
        </mxCell>
        <mxCell id="_gTvMmu1mN6YXcPTjAMC-87" value="Extends" style="endArrow=block;endSize=16;endFill=0;html=1;rounded=0;exitX=0.462;exitY=0.967;exitDx=0;exitDy=0;exitPerimeter=0;" edge="1" parent="WIyWlLk6GJQsqaUBKTNV-1" source="_gTvMmu1mN6YXcPTjAMC-66">
          <mxGeometry width="160" relative="1" as="geometry">
            <mxPoint x="798" y="715" as="sourcePoint" />
            <mxPoint x="790" y="823" as="targetPoint" />
          </mxGeometry>
        </mxCell>
        <mxCell id="_gTvMmu1mN6YXcPTjAMC-88" value="Extends" style="endArrow=block;endSize=16;endFill=0;html=1;rounded=0;exitX=0.385;exitY=1.116;exitDx=0;exitDy=0;exitPerimeter=0;" edge="1" parent="WIyWlLk6GJQsqaUBKTNV-1" source="_gTvMmu1mN6YXcPTjAMC-56">
          <mxGeometry width="160" relative="1" as="geometry">
            <mxPoint x="798" y="715" as="sourcePoint" />
            <mxPoint x="770" y="823" as="targetPoint" />
          </mxGeometry>
        </mxCell>
        <mxCell id="_gTvMmu1mN6YXcPTjAMC-89" value="" style="endArrow=none;html=1;rounded=0;entryX=0.276;entryY=0.911;entryDx=0;entryDy=0;entryPerimeter=0;exitX=0.613;exitY=0.002;exitDx=0;exitDy=0;exitPerimeter=0;" edge="1" parent="WIyWlLk6GJQsqaUBKTNV-1" source="_gTvMmu1mN6YXcPTjAMC-53" target="_gTvMmu1mN6YXcPTjAMC-81">
          <mxGeometry width="50" height="50" relative="1" as="geometry">
            <mxPoint x="690" y="703" as="sourcePoint" />
            <mxPoint x="740" y="653" as="targetPoint" />
          </mxGeometry>
        </mxCell>
        <mxCell id="_gTvMmu1mN6YXcPTjAMC-90" value="" style="endArrow=none;html=1;rounded=0;exitX=0.438;exitY=0.019;exitDx=0;exitDy=0;exitPerimeter=0;" edge="1" parent="WIyWlLk6GJQsqaUBKTNV-1" source="_gTvMmu1mN6YXcPTjAMC-57" target="_gTvMmu1mN6YXcPTjAMC-81">
          <mxGeometry width="50" height="50" relative="1" as="geometry">
            <mxPoint x="483" y="600" as="sourcePoint" />
            <mxPoint x="696" y="532" as="targetPoint" />
          </mxGeometry>
        </mxCell>
        <mxCell id="_gTvMmu1mN6YXcPTjAMC-91" value="" style="endArrow=none;html=1;rounded=0;exitX=0.5;exitY=0;exitDx=0;exitDy=0;entryX=0.497;entryY=0.878;entryDx=0;entryDy=0;entryPerimeter=0;" edge="1" parent="WIyWlLk6GJQsqaUBKTNV-1" source="_gTvMmu1mN6YXcPTjAMC-62" target="_gTvMmu1mN6YXcPTjAMC-81">
          <mxGeometry width="50" height="50" relative="1" as="geometry">
            <mxPoint x="801" y="591" as="sourcePoint" />
            <mxPoint x="778" y="534" as="targetPoint" />
          </mxGeometry>
        </mxCell>
      </root>
    </mxGraphModel>
  </diagram>
</mxfile>
